<svg width="144" height="144" viewBox="0 0 144 144" fill="none" xmlns="http://www.w3.org/2000/svg">
<path d="M48.1034 54.75H29.2759M40.8621 69.125H11.8966M39.4138 83.5H32.1724M24.931 83.5H9M42.3103 97.875H26.3793M77.069 26H97.3448M77.069 26C73.8695 26 71.2759 23.4256 71.2759 20.25C71.2759 17.0744 73.8695 14.5 77.069 14.5H97.3448C100.544 14.5 103.138 17.0744 103.138 20.25C103.138 23.4256 100.544 26 97.3448 26M77.069 26V35.6944M97.3448 26V35.6944M75.6207 70.5625L84.1346 79.0131M107.483 61.9375L90.2791 79.0131M84.1346 79.0131C83.3484 79.7935 82.8621 80.8716 82.8621 82.0625C82.8621 84.4442 84.8073 86.375 87.2069 86.375C89.6065 86.375 91.5517 84.4442 91.5517 82.0625C91.5517 80.8716 91.0654 79.7935 90.2791 79.0131M84.1346 79.0131C84.9209 78.2327 86.0071 77.75 87.2069 77.75C88.4067 77.75 89.4929 78.2327 90.2791 79.0131M87.2069 57.625V51.875M111.828 82.0625H117.621M87.2069 106.5V112.25M62.5862 82.0625H56.7931M123.414 82.0625C123.414 101.91 107.203 118 87.2069 118C67.2104 118 51 101.91 51 82.0625C51 62.2148 67.2104 46.125 87.2069 46.125C107.203 46.125 123.414 62.2148 123.414 82.0625ZM135 82.0625C135 108.262 113.602 129.5 87.2069 129.5C60.8115 129.5 39.4138 108.262 39.4138 82.0625C39.4138 55.8635 60.8115 34.625 87.2069 34.625C113.602 34.625 135 55.8635 135 82.0625Z" stroke="#1B3CC2" stroke-width="4" stroke-linecap="round"/>
</svg>
