<svg width="144" height="144" viewBox="0 0 144 144" fill="none" xmlns="http://www.w3.org/2000/svg">
<path d="M74.6593 17.6371C75.0111 16.5901 74.4476 15.456 73.4006 15.1042C72.3535 14.7523 71.2195 15.3159 70.8676 16.3629L74.6593 17.6371ZM67.1429 33.7256L65.247 33.0885C65.042 33.6987 65.1432 34.3703 65.5189 34.893C65.8947 35.4157 66.4991 35.7256 67.1429 35.7256V33.7256ZM77.8571 33.7256L79.7589 34.3447C79.9571 33.7357 79.8518 33.0687 79.4755 32.5505C79.0992 32.0323 78.4976 31.7256 77.8571 31.7256V33.7256ZM70.8617 48.753C70.5198 49.8033 71.094 50.9319 72.1444 51.2739C73.1947 51.6158 74.3233 51.0415 74.6652 49.9912L70.8617 48.753ZM108.661 24.7963C109.243 23.8571 108.952 22.6245 108.013 22.0431C107.074 21.4617 105.841 21.7518 105.26 22.691L108.661 24.7963ZM97.5692 38.9151L95.8686 37.8624C95.536 38.3998 95.4769 39.0627 95.7092 39.6504C95.9416 40.2381 96.438 40.6814 97.0481 40.846L97.5692 38.9151ZM107.093 41.4853L108.803 42.5231C109.129 41.9856 109.184 41.3258 108.95 40.742C108.716 40.1581 108.222 39.7182 107.614 39.5544L107.093 41.4853ZM96.7443 54.6795C96.1711 55.6238 96.4719 56.8539 97.4161 57.427C98.3603 58.0002 99.5904 57.6994 100.164 56.7552L96.7443 54.6795ZM39.3166 23.6855C39.3537 22.5816 38.4889 21.6565 37.385 21.6194C36.281 21.5823 35.356 22.4471 35.3189 23.551L39.3166 23.6855ZM36.7165 41.4863L34.7177 41.4191C34.6963 42.053 34.9769 42.6594 35.4739 43.0534C35.9709 43.4475 36.6253 43.5825 37.2376 43.4173L36.7165 41.4863ZM46.2407 38.9161L48.2401 38.966C48.2559 38.3351 47.9728 37.7337 47.4766 37.3436C46.9803 36.9536 46.329 36.8208 45.7197 36.9852L46.2407 38.9161ZM43.825 55.5421C43.7974 56.6463 44.6702 57.5638 45.7745 57.5914C46.8787 57.6189 47.7962 56.7461 47.8238 55.6419L43.825 55.5421ZM55.7604 106.836C54.7193 107.205 54.1745 108.348 54.5435 109.389C54.9125 110.43 56.0556 110.975 57.0967 110.606L55.7604 106.836ZM87.9033 110.606C88.9444 110.975 90.0875 110.43 90.4565 109.389C90.8255 108.348 90.2807 107.205 89.2396 106.836L87.9033 110.606ZM68.2995 88.7711C69.2006 88.1323 69.4133 86.884 68.7745 85.9829C68.1357 85.0818 66.8873 84.8691 65.9862 85.5079L68.2995 88.7711ZM59.1071 89.8372L59.1071 87.8372L59.1071 89.8372ZM52.2281 85.5079C51.327 84.8691 50.0786 85.0818 49.4398 85.9829C48.801 86.884 49.0137 88.1323 49.9148 88.7711L52.2281 85.5079ZM95.0852 88.7711C95.9863 88.1323 96.199 86.884 95.5602 85.9829C94.9214 85.0818 93.673 84.8691 92.7719 85.5079L95.0852 88.7711ZM85.8929 89.8372L85.8929 87.8372L85.8929 89.8372ZM79.0138 85.5079C78.1127 84.8691 76.8643 85.0818 76.2255 85.9829C75.5867 86.884 75.7994 88.1323 76.7005 88.7711L79.0138 85.5079ZM70.8676 16.3629L65.247 33.0885L69.0387 34.3627L74.6593 17.6371L70.8676 16.3629ZM67.1429 35.7256H77.8571V31.7256H67.1429V35.7256ZM75.9554 33.1065L70.8617 48.753L74.6652 49.9912L79.7589 34.3447L75.9554 33.1065ZM105.26 22.691L95.8686 37.8624L99.2697 39.9678L108.661 24.7963L105.26 22.691ZM97.0481 40.846L106.572 43.4162L107.614 39.5544L98.0903 36.9842L97.0481 40.846ZM105.384 40.4475L96.7443 54.6795L100.164 56.7552L108.803 42.5231L105.384 40.4475ZM35.3189 23.551L34.7177 41.4191L38.7154 41.5536L39.3166 23.6855L35.3189 23.551ZM37.2376 43.4173L46.7618 40.8471L45.7197 36.9852L36.1955 39.5554L37.2376 43.4173ZM44.2414 38.8662L43.825 55.5421L47.8238 55.6419L48.2401 38.966L44.2414 38.8662ZM108 95.2326C108 115 92.0927 131 72.5 131V135C94.3286 135 112 117.182 112 95.2326H108ZM72.5 131C52.9073 131 37 115 37 95.2326H33C33 117.182 50.6714 135 72.5 135V131ZM37 95.2326C37 75.4653 52.9073 59.4651 72.5 59.4651V55.4651C50.6714 55.4651 33 73.283 33 95.2326H37ZM72.5 59.4651C92.0927 59.4651 108 75.4653 108 95.2326H112C112 73.283 94.3286 55.4651 72.5 55.4651V59.4651ZM57.0967 110.606C61.7619 108.952 66.9812 108.023 72.5 108.023V104.023C66.5348 104.023 60.863 105.027 55.7604 106.836L57.0967 110.606ZM72.5 108.023C78.0188 108.023 83.2381 108.952 87.9033 110.606L89.2396 106.836C84.137 105.027 78.4652 104.023 72.5 104.023V108.023ZM65.9862 85.5079C63.8354 87.0326 61.5097 87.8372 59.1071 87.8372L59.1071 91.8372C62.4466 91.8372 65.5664 90.7087 68.2995 88.7711L65.9862 85.5079ZM59.1071 87.8372C56.7046 87.8372 54.3789 87.0326 52.2281 85.5079L49.9148 88.7711C52.6479 90.7087 55.7677 91.8372 59.1071 91.8372L59.1071 87.8372ZM92.7719 85.5079C90.6211 87.0326 88.2954 87.8372 85.8929 87.8372L85.8929 91.8372C89.2323 91.8372 92.3521 90.7087 95.0852 88.7711L92.7719 85.5079ZM85.8929 87.8372C83.4903 87.8372 81.1646 87.0326 79.0138 85.5079L76.7005 88.7711C79.4336 90.7087 82.5534 91.8372 85.8929 91.8372L85.8929 87.8372Z" fill="#1B3CC2"/>
</svg>
