<svg width="144" height="144" viewBox="0 0 144 144" fill="none" xmlns="http://www.w3.org/2000/svg">
<path d="M63.3234 56.9159L61.3234 56.9159L63.3234 56.9159ZM54.2695 47.8914L54.2695 49.8914L54.2695 47.8914ZM98.3166 24.9718C97.5343 24.192 96.268 24.1941 95.4882 24.9764C94.7084 25.7587 94.7104 27.025 95.4928 27.8048L98.3166 24.9718ZM119.159 50.5672C120.264 50.5654 121.157 49.6685 121.156 48.5639L121.126 30.564C121.125 29.4594 120.228 28.5654 119.123 28.5672C118.019 28.569 117.125 29.4659 117.126 30.5705L117.152 46.5704L101.152 46.5964C100.048 46.5982 99.1539 47.4951 99.1557 48.5997C99.1575 49.7042 100.054 50.5982 101.159 50.5964L119.159 50.5672ZM118.076 131.238L116.664 132.654L116.664 132.654L118.076 131.238ZM126.612 122.729L125.2 124.146L125.2 124.146L126.612 122.729ZM88.1993 84.4415L89.6113 83.025L89.6113 83.025L88.1993 84.4415ZM79.6633 92.9499L81.0752 91.5334L81.0752 91.5334L79.6633 92.9499ZM70.163 41.7776L71.2285 40.0851L71.2285 40.0851L70.163 41.7776ZM41.4067 44.0119L40.093 42.5038L41.4067 44.0119ZM133 56.8748C133 60.7482 129.848 63.8993 125.946 63.8993V67.8993C132.045 67.8993 137 62.9696 137 56.8748H133ZM125.946 63.8993C122.044 63.8993 118.892 60.7482 118.892 56.8748H114.892C114.892 62.9696 119.847 67.8993 125.946 67.8993V63.8993ZM118.892 56.8748C118.892 53.0014 122.044 49.8502 125.946 49.8502V45.8502C119.847 45.8502 114.892 50.78 114.892 56.8748H118.892ZM125.946 49.8502C129.848 49.8502 133 53.0014 133 56.8748H137C137 50.78 132.045 45.8502 125.946 45.8502V49.8502ZM18.0539 27.0491C14.152 27.0491 11 23.898 11 20.0245H7C7 26.1194 11.9551 31.0491 18.0539 31.0491V27.0491ZM11 20.0245C11 16.1511 14.152 13 18.0539 13V9C11.9551 9 7 13.9297 7 20.0245H11ZM18.0539 13C21.9558 13 25.1078 16.1511 25.1078 20.0245H29.1078C29.1078 13.9297 24.1527 9 18.0539 9V13ZM25.1078 20.0245C25.1078 22.1025 24.2042 23.9689 22.7584 25.2587L25.4212 28.2436C27.68 26.2285 29.1078 23.2922 29.1078 20.0245H25.1078ZM22.7584 25.2587C21.5094 26.373 19.8637 27.0491 18.0539 27.0491V31.0491C20.8818 31.0491 23.4666 29.9874 25.4212 28.2436L22.7584 25.2587ZM61.3234 56.9159C61.3234 60.7893 58.1713 63.9405 54.2695 63.9405L54.2695 67.9405C60.3682 67.9405 65.3234 63.0107 65.3234 56.9159L61.3234 56.9159ZM54.2695 63.9405C50.3676 63.9405 47.2156 60.7893 47.2156 56.9159L43.2156 56.9159C43.2156 63.0107 48.1707 67.9405 54.2695 67.9405L54.2695 63.9405ZM47.2156 56.9159C47.2156 53.0425 50.3676 49.8914 54.2695 49.8914L54.2695 45.8914C48.1707 45.8914 43.2156 50.8211 43.2156 56.9159L47.2156 56.9159ZM54.2695 49.8914C56.3607 49.8914 58.2361 50.795 59.5298 52.2358L62.5061 49.5633C60.4841 47.3116 57.5411 45.8914 54.2695 45.8914L54.2695 49.8914ZM59.5298 52.2358C60.6472 53.4802 61.3234 55.1175 61.3234 56.9159L65.3234 56.9159C65.3234 54.0917 64.256 51.5121 62.5061 49.5633L59.5298 52.2358ZM97.5389 20.0245C97.5389 23.898 94.3869 27.0491 90.485 27.0491V31.0491C96.5838 31.0491 101.539 26.1194 101.539 20.0245H97.5389ZM90.485 27.0491C86.5831 27.0491 83.4311 23.898 83.4311 20.0245H79.4311C79.4311 26.1194 84.3863 31.0491 90.485 31.0491V27.0491ZM83.4311 20.0245C83.4311 16.1511 86.5831 13 90.485 13V9C84.3863 9 79.4311 13.9297 79.4311 20.0245H83.4311ZM90.485 13C94.3869 13 97.5389 16.1511 97.5389 20.0245H101.539C101.539 13.9297 96.5838 9 90.485 9V13ZM95.4928 27.8048L117.744 49.9837L120.568 47.1507L98.3166 24.9718L95.4928 27.8048ZM85.4671 62.1391C85.4671 77.6422 72.8567 90.2209 57.2874 90.2209V94.2209C75.0536 94.2209 89.4671 79.8635 89.4671 62.1391H85.4671ZM57.2874 90.2209C41.7181 90.2209 29.1078 77.6422 29.1078 62.1391H25.1078C25.1078 79.8635 39.5212 94.2209 57.2874 94.2209V90.2209ZM79.4311 62.1391C79.4311 74.3194 69.5232 84.2046 57.2874 84.2046V88.2046C71.7201 88.2046 83.4311 76.5408 83.4311 62.1391H79.4311ZM57.2874 84.2046C45.0517 84.2046 35.1437 74.3194 35.1437 62.1391H31.1437C31.1437 76.5408 42.8548 88.2046 57.2874 88.2046V84.2046ZM86.7874 85.858L125.2 124.146L128.024 121.313L89.6113 83.025L86.7874 85.858ZM119.488 129.821L81.0752 91.5334L78.2513 94.3664L116.664 132.654L119.488 129.821ZM125.2 129.821C123.623 131.393 121.064 131.393 119.488 129.821L116.664 132.654C119.801 135.782 124.886 135.782 128.024 132.654L125.2 129.821ZM125.2 124.146C126.773 125.714 126.773 128.253 125.2 129.821L128.024 132.654C131.165 129.523 131.165 124.444 128.024 121.313L125.2 124.146ZM81.0752 85.858C82.6518 84.2865 85.2108 84.2865 86.7874 85.858L89.6113 83.025C86.4736 79.8975 81.389 79.8975 78.2513 83.025L81.0752 85.858ZM78.2513 83.025C75.1101 86.1561 75.1101 91.2353 78.2513 94.3664L81.0752 91.5334C79.5021 89.9655 79.5021 87.426 81.0752 85.858L78.2513 83.025ZM62.4304 52.3155L71.5754 43.1936L68.7505 40.3616L59.6055 49.4835L62.4304 52.3155ZM57.2874 40.0736C61.6333 40.0736 65.6808 41.3191 69.0974 43.4701L71.2285 40.0851C67.1919 37.5438 62.4086 36.0736 57.2874 36.0736V40.0736ZM69.0974 43.4701C75.3131 47.3834 79.4311 54.284 79.4311 62.1391H83.4311C83.4311 52.8487 78.555 44.6976 71.2285 40.0851L69.0974 43.4701ZM75.9273 38.8527L86.2843 28.5219L83.4594 25.6899L73.1025 36.0207L75.9273 38.8527ZM57.2874 34.0573C63.2714 34.0573 68.8139 35.9137 73.3744 39.0796L75.6554 35.7937C70.446 32.1774 64.1118 30.0573 57.2874 30.0573V34.0573ZM73.3744 39.0796C80.6893 44.1575 85.4671 52.5935 85.4671 62.1391H89.4671C89.4671 51.2241 83.998 41.5851 75.6554 35.7937L73.3744 39.0796ZM29.1078 62.1391C29.1078 53.8413 32.7169 46.3848 38.4647 41.2402L35.797 38.2597C29.2391 44.1294 25.1078 52.6539 25.1078 62.1391H29.1078ZM38.4647 41.2402C43.4553 36.7733 50.0503 34.0573 57.2874 34.0573V30.0573C49.0299 30.0573 41.4938 33.1607 35.797 38.2597L38.4647 41.2402ZM22.6779 28.1677L35.7189 41.1664L38.5428 38.3334L25.5017 25.3347L22.6779 28.1677ZM39.9947 45.4284L46.4972 51.9098L49.321 49.0768L42.8186 42.5954L39.9947 45.4284ZM35.1437 62.1391C35.1437 55.5125 38.0728 49.5685 42.7204 45.5199L40.093 42.5038C34.6124 47.2781 31.1437 54.3052 31.1437 62.1391H35.1437ZM42.7204 45.5199C46.6145 42.1277 51.7074 40.0736 57.2874 40.0736V36.0736C50.7066 36.0736 44.6886 38.5004 40.093 42.5038L42.7204 45.5199Z" fill="#1B3CC2"/>
</svg>
