<svg width="144" height="144" viewBox="0 0 144 144" fill="none" xmlns="http://www.w3.org/2000/svg">
<path d="M53.5675 115.485C53.2829 116.552 53.9174 117.648 54.9847 117.932C56.0519 118.217 57.1479 117.583 57.4325 116.515L53.5675 115.485ZM20.3333 32.625C19.2288 32.625 18.3333 33.5204 18.3333 34.625C18.3333 35.7296 19.2288 36.625 20.3333 36.625V32.625ZM66.8359 36.625C67.9405 36.625 68.8359 35.7296 68.8359 34.625C68.8359 33.5204 67.9405 32.625 66.8359 32.625V36.625ZM86.4325 100.485C86.1479 99.4174 85.0519 98.7829 83.9847 99.0675C82.9174 99.3521 82.2829 100.448 82.5675 101.515L86.4325 100.485ZM86.5675 116.515C86.8521 117.583 87.9481 118.217 89.0153 117.932C90.0826 117.648 90.7171 116.552 90.4325 115.485L86.5675 116.515ZM20.3359 42.625C19.2314 42.625 18.3359 43.5204 18.3359 44.625C18.3359 45.7296 19.2314 46.625 20.3359 46.625V42.625ZM66.8385 46.625C67.9431 46.625 68.8385 45.7296 68.8385 44.625C68.8385 43.5204 67.9431 42.625 66.8385 42.625V46.625ZM20.3359 52.625C19.2314 52.625 18.3359 53.5204 18.3359 54.625C18.3359 55.7296 19.2314 56.625 20.3359 56.625V52.625ZM49.5 56.625C50.6046 56.625 51.5 55.7296 51.5 54.625C51.5 53.5204 50.6046 52.625 49.5 52.625V56.625ZM20.3359 62.625C19.2314 62.625 18.3359 63.5204 18.3359 64.625C18.3359 65.7296 19.2314 66.625 20.3359 66.625V62.625ZM66.8385 66.625C67.9431 66.625 68.8385 65.7296 68.8385 64.625C68.8385 63.5204 67.9431 62.625 66.8385 62.625V66.625ZM20.3359 72.625C19.2314 72.625 18.3359 73.5204 18.3359 74.625C18.3359 75.7296 19.2314 76.625 20.3359 76.625V72.625ZM40 76.625C41.1046 76.625 42 75.7296 42 74.625C42 73.5204 41.1046 72.625 40 72.625V76.625ZM80 64V62C78.8954 62 78 62.8954 78 64H80ZM90 64H92C92 62.8954 91.1046 62 90 62V64ZM90 79V81C91.1046 81 92 80.1046 92 79H90ZM80 79H78C78 80.1046 78.8954 81 80 81V79ZM98 59V57C96.8954 57 96 57.8954 96 59H98ZM108 59H110C110 57.8954 109.105 57 108 57V59ZM108 79V81C109.105 81 110 80.1046 110 79H108ZM98 79H96C96 80.1046 96.8954 81 98 81V79ZM115 43V41C113.895 41 113 41.8954 113 43H115ZM125 43H127C127 41.8954 126.105 41 125 41V43ZM125 79V81C126.105 81 127 80.1046 127 79H125ZM115 79H113C113 80.1046 113.895 81 115 81V79ZM57.5675 100.485L53.5675 115.485L57.4325 116.515L61.4325 101.515L57.5675 100.485ZM10 89.375H134V85.375H10V89.375ZM20.3333 21H123.667V17H20.3333V21ZM132 29.25V87.375H136V29.25H132ZM132 87.375V90.75H136V87.375H132ZM123.667 99H59.5V103H123.667V99ZM59.5 99H20.3333V103H59.5V99ZM12 90.75V87.375H8V90.75H12ZM12 87.375V29.25H8V87.375H12ZM20.3333 99C15.7157 99 12 95.2911 12 90.75H8C8 97.5307 13.5371 103 20.3333 103V99ZM132 90.75C132 95.2911 128.284 99 123.667 99V103C130.463 103 136 97.5307 136 90.75H132ZM123.667 21C128.284 21 132 24.7089 132 29.25H136C136 22.4693 130.463 17 123.667 17V21ZM20.3333 17C13.5371 17 8 22.4693 8 29.25H12C12 24.7089 15.7157 21 20.3333 21V17ZM20.3333 36.625H66.8359V32.625H20.3333V36.625ZM47.5 118H96.5V114H47.5V118ZM96.5 123H47.5V127H96.5V123ZM47.5 123C46.1193 123 45 121.881 45 120.5H41C41 124.09 43.9101 127 47.5 127V123ZM99 120.5C99 121.881 97.8807 123 96.5 123V127C100.09 127 103 124.09 103 120.5H99ZM96.5 118C97.8807 118 99 119.119 99 120.5H103C103 116.91 100.09 114 96.5 114V118ZM47.5 114C43.9101 114 41 116.91 41 120.5H45C45 119.119 46.1193 118 47.5 118V114ZM82.5675 101.515L86.5675 116.515L90.4325 115.485L86.4325 100.485L82.5675 101.515ZM20.3359 46.625H66.8385V42.625H20.3359V46.625ZM20.3359 56.625H49.5V52.625H20.3359V56.625ZM20.3359 66.625H66.8385V62.625H20.3359V66.625ZM20.3359 76.625H40V72.625H20.3359V76.625ZM80 66H90V62H80V66ZM88 64V79H92V64H88ZM90 77H80V81H90V77ZM82 79V64H78V79H82ZM98 61H108V57H98V61ZM106 59V79H110V59H106ZM108 77H98V81H108V77ZM100 79V59H96V79H100ZM115 45H125V41H115V45ZM123 43V79H127V43H123ZM125 77H115V81H125V77ZM117 79V43H113V79H117Z" fill="#1B3CC2"/>
</svg>
