<svg width="64" height="64" viewBox="0 0 64 64" fill="none" xmlns="http://www.w3.org/2000/svg">
<path d="M31.2929 4.70711L28.5 7.5C27.9465 8.05354 28.3385 9 29.1213 9C29.6066 9 30 9.3934 30 9.87868V14.5C30 15.0523 30.4477 15.5 31 15.5H33C33.5523 15.5 34 15.0523 34 14.5V9.87868C34 9.3934 34.3934 9 34.8787 9C35.6615 9 36.0535 8.05354 35.5 7.5L32.7071 4.70711C32.3166 4.31658 31.6834 4.31658 31.2929 4.70711Z" fill="#6CACE4"/>
<path d="M17.2929 8.70711L14.5 11.5C13.9465 12.0535 14.3385 13 15.1213 13C15.6066 13 16 13.3934 16 13.8787V18.5C16 19.0523 16.4477 19.5 17 19.5H19C19.5523 19.5 20 19.0523 20 18.5V13.8787C20 13.3934 20.3934 13 20.8787 13C21.6615 13 22.0535 12.0535 21.5 11.5L18.7071 8.70711C18.3166 8.31658 17.6834 8.31658 17.2929 8.70711Z" fill="#6CACE4"/>
<path d="M45.2929 8.70711L42.5 11.5C41.9465 12.0535 42.3385 13 43.1213 13C43.6066 13 44 13.3934 44 13.8787V18.5C44 19.0523 44.4477 19.5 45 19.5H47C47.5523 19.5 48 19.0523 48 18.5V13.8787C48 13.3934 48.3934 13 48.8787 13C49.6615 13 50.0535 12.0535 49.5 11.5L46.7071 8.70711C46.3166 8.31658 45.6834 8.31658 45.2929 8.70711Z" fill="#6CACE4"/>
<circle cx="32" cy="29" r="8.75" fill="#357AB5" stroke="#357AB5" stroke-width="0.5"/>
<mask id="path-5-inside-1_579_45720" fill="white">
<path fill-rule="evenodd" clip-rule="evenodd" d="M4 27C4 26.4477 4.44772 26 5 26H11C11.5523 26 12 26.4477 12 27V31C12 31.5523 11.5523 32 11 32H10V39C10 39.5523 10.4477 40 11 40H20H44H53C53.5523 40 54 39.5523 54 39V32H53C52.4477 32 52 31.5523 52 31V27C52 26.4477 52.4477 26 53 26H59C59.5523 26 60 26.4477 60 27V32V45C60 45.5523 59.5523 46 59 46H44V60H20V46H5C4.44771 46 4 45.5523 4 45V32V27Z"/>
</mask>
<path fill-rule="evenodd" clip-rule="evenodd" d="M4 27C4 26.4477 4.44772 26 5 26H11C11.5523 26 12 26.4477 12 27V31C12 31.5523 11.5523 32 11 32H10V39C10 39.5523 10.4477 40 11 40H20H44H53C53.5523 40 54 39.5523 54 39V32H53C52.4477 32 52 31.5523 52 31V27C52 26.4477 52.4477 26 53 26H59C59.5523 26 60 26.4477 60 27V32V45C60 45.5523 59.5523 46 59 46H44V60H20V46H5C4.44771 46 4 45.5523 4 45V32V27Z" fill="#357AB5"/>
<path d="M10 32V31.5H9.5V32H10ZM54 32H54.5V31.5H54V32ZM44 46V45.5H43.5V46H44ZM44 60V60.5H44.5V60H44ZM20 60H19.5V60.5H20V60ZM20 46H20.5V45.5H20V46ZM5 25.5C4.17157 25.5 3.5 26.1716 3.5 27H4.5C4.5 26.7239 4.72386 26.5 5 26.5V25.5ZM11 25.5H5V26.5H11V25.5ZM12.5 27C12.5 26.1716 11.8284 25.5 11 25.5V26.5C11.2761 26.5 11.5 26.7239 11.5 27H12.5ZM12.5 31V27H11.5V31H12.5ZM11 32.5C11.8284 32.5 12.5 31.8284 12.5 31H11.5C11.5 31.2761 11.2761 31.5 11 31.5V32.5ZM10 32.5H11V31.5H10V32.5ZM10.5 39V32H9.5V39H10.5ZM11 39.5C10.7239 39.5 10.5 39.2761 10.5 39H9.5C9.5 39.8284 10.1716 40.5 11 40.5V39.5ZM20 39.5H11V40.5H20V39.5ZM44 39.5H20V40.5H44V39.5ZM53 39.5H44V40.5H53V39.5ZM53.5 39C53.5 39.2761 53.2761 39.5 53 39.5V40.5C53.8284 40.5 54.5 39.8284 54.5 39H53.5ZM53.5 32V39H54.5V32H53.5ZM53 32.5H54V31.5H53V32.5ZM51.5 31C51.5 31.8284 52.1716 32.5 53 32.5V31.5C52.7239 31.5 52.5 31.2761 52.5 31H51.5ZM51.5 27V31H52.5V27H51.5ZM53 25.5C52.1716 25.5 51.5 26.1716 51.5 27H52.5C52.5 26.7239 52.7239 26.5 53 26.5V25.5ZM59 25.5H53V26.5H59V25.5ZM60.5 27C60.5 26.1716 59.8284 25.5 59 25.5V26.5C59.2761 26.5 59.5 26.7239 59.5 27H60.5ZM60.5 32V27H59.5V32H60.5ZM60.5 45V32H59.5V45H60.5ZM59 46.5C59.8284 46.5 60.5 45.8284 60.5 45H59.5C59.5 45.2761 59.2761 45.5 59 45.5V46.5ZM44 46.5H59V45.5H44V46.5ZM44.5 60V46H43.5V60H44.5ZM20 60.5H44V59.5H20V60.5ZM19.5 46V60H20.5V46H19.5ZM5 46.5H20V45.5H5V46.5ZM3.5 45C3.5 45.8284 4.17157 46.5 5 46.5V45.5C4.72386 45.5 4.5 45.2761 4.5 45H3.5ZM3.5 32V45H4.5V32H3.5ZM3.5 27V32H4.5V27H3.5Z" fill="#357AB5" mask="url(#path-5-inside-1_579_45720)"/>
<path d="M31.5245 44.4635C31.6741 44.0029 32.3259 44.0029 32.4755 44.4635L33.2348 46.8004C33.3018 47.0064 33.4937 47.1459 33.7104 47.1459H36.1675C36.6519 47.1459 36.8532 47.7657 36.4614 48.0504L34.4735 49.4947C34.2983 49.622 34.2249 49.8477 34.2919 50.0537L35.0512 52.3906C35.2009 52.8512 34.6736 53.2343 34.2818 52.9496L32.2939 51.5053C32.1186 51.378 31.8814 51.378 31.7061 51.5053L29.7182 52.9496C29.3264 53.2343 28.7991 52.8512 28.9488 52.3906L29.7081 50.0537C29.7751 49.8477 29.7017 49.622 29.5265 49.4947L27.5386 48.0504C27.1468 47.7657 27.3481 47.1459 27.8325 47.1459H30.2896C30.5063 47.1459 30.6982 47.0064 30.7652 46.8004L31.5245 44.4635Z" fill="#F1F5F9"/>
</svg>
