<svg width="64" height="64" viewBox="0 0 64 64" fill="none" xmlns="http://www.w3.org/2000/svg">
<path d="M23.635 43.8088V51H39.8102V45.6065C39.8102 44.5792 39.9451 41.5689 40.8211 39.6995C43.3485 34.3062 46.064 35.3334 46.8868 26.3445C47.8978 15.3011 41.9815 10.7335 35.2609 10.1644C29.1952 9.65071 23.8877 10.1643 20.0966 14.2737C16.3056 18.383 16.2213 23.8618 16.0528 26.8581C15.4631 27.6286 13.7782 29.4264 12.5145 31.9947C11.4422 34.1739 12.2617 34.3061 13.0199 34.3061L16.0528 34.3062V41.7542C16.0528 43.8088 17.7377 43.98 18.5802 43.8088H23.635Z" fill="#E1EFFB"/>
<path d="M27 23.6432C27 22.7145 27.1724 19 32 19C36.8276 19 37 22.7145 37 23.6432C37 27.3577 32 27.9759 32 32" stroke="#1A5A8F" stroke-width="2"/>
<circle cx="32" cy="35.5" r="1.5" fill="#003057"/>
<ellipse cx="45" cy="12.5" rx="7" ry="7.5" fill="#A1D2FE"/>
<path d="M45 8V12C45 12.5523 45.4477 13 46 13H49" stroke="#357AB5" stroke-linecap="round"/>
</svg>
