<svg width="64" height="64" viewBox="0 0 64 64" fill="none" xmlns="http://www.w3.org/2000/svg">
<rect x="7" y="9" width="19" height="22" rx="2" fill="#6CACE4"/>
<path d="M40.485 38.7894C46.2513 33.0231 46.2513 23.6741 40.485 17.9078C34.7187 12.1415 25.3697 12.1415 19.6034 17.9078C13.8371 23.6741 13.8371 33.0231 19.6034 38.7894C25.3697 44.5557 34.7187 44.5557 40.485 38.7894Z" fill="#E1EFFB" stroke="#1A5A8F" stroke-width="2"/>
<path fill-rule="evenodd" clip-rule="evenodd" d="M30.3618 14.4468V33.1645C30.3618 35.3736 28.571 37.1645 26.3618 37.1645H19.3083C14.8535 31.6912 15.1754 23.6249 20.2739 18.5264C23.0545 15.7458 26.7178 14.3859 30.3618 14.4468Z" fill="#6CACE4"/>
<path d="M39.2092 39.2892L40.0488 38.4497L43.4069 41.8078L42.5674 42.6474L39.2092 39.2892Z" fill="#1A5A8F"/>
<path d="M42.8547 43.7742C42.4642 43.3837 42.4642 42.7506 42.8547 42.36L43.1196 42.0952C43.5101 41.7046 44.1433 41.7046 44.5338 42.0952L55.2929 52.8543C55.6834 53.2448 55.6834 53.878 55.2929 54.2685L55.028 54.5333C54.6375 54.9239 54.0043 54.9239 53.6138 54.5333L42.8547 43.7742Z" fill="#1A5A8F"/>
</svg>
