<svg width="64" height="64" viewBox="0 0 64 64" fill="none" xmlns="http://www.w3.org/2000/svg">
<rect x="6" y="8" width="52" height="42" rx="1" fill="#E1EFFB"/>
<rect x="8" y="16" width="14" height="8" rx="1" fill="#6CACE4"/>
<rect x="8" y="27" width="48" height="8" rx="1" fill="#6CACE4"/>
<rect x="25" y="16" width="14" height="8" rx="1" fill="#6CACE4"/>
<rect x="42" y="16" width="14" height="8" rx="1" fill="#6CACE4"/>
<circle cx="9.5" cy="11.5" r="1.5" fill="#A1D2FE"/>
<path d="M9 39H32" stroke="#6CACE4" stroke-width="2" stroke-linecap="round"/>
<path d="M9 42H32" stroke="#6CACE4" stroke-width="2" stroke-linecap="round"/>
<path d="M9 45H32" stroke="#6CACE4" stroke-width="2" stroke-linecap="round"/>
<circle cx="50" cy="47" r="10" fill="#357AB5"/>
<path d="M49.5245 40.4635C49.6741 40.0029 50.3259 40.0029 50.4755 40.4635L51.6839 44.1824C51.7508 44.3884 51.9428 44.5279 52.1594 44.5279H56.0696C56.554 44.5279 56.7554 45.1477 56.3635 45.4324L53.2001 47.7307C53.0248 47.8581 52.9515 48.0838 53.0184 48.2898L54.2268 52.0086C54.3764 52.4693 53.8492 52.8523 53.4573 52.5676L50.2939 50.2693C50.1186 50.1419 49.8814 50.1419 49.7061 50.2693L46.5427 52.5676C46.1508 52.8523 45.6236 52.4693 45.7732 52.0086L46.9816 48.2898C47.0485 48.0838 46.9752 47.8581 46.7999 47.7307L43.6365 45.4324C43.2446 45.1477 43.446 44.5279 43.9304 44.5279H47.8406C48.0572 44.5279 48.2492 44.3884 48.3161 44.1824L49.5245 40.4635Z" fill="#F1F5F9"/>
</svg>
