<svg width="1013" height="954" viewBox="0 0 1013 954" fill="none" xmlns="http://www.w3.org/2000/svg">
<path d="M725.888 404C658.946 404 603.052 409.007 543.568 416.492C443.203 429.123 337.668 447.731 262.609 468.192C186.817 488.853 121.927 517.974 121.927 546.03C121.927 555.536 113.376 568.425 148.204 575.243C185.512 582.547 266.044 577.463 303.035 572.36C444.718 552.818 564.083 525.219 711.335 507.399C746.391 503.157 838.694 497.945 878.697 502.979C906.113 506.429 883.722 539.046 877.08 543.724C852.551 561 777.737 574.559 721.441 585.622C633.915 602.821 539.244 619.577 441.291 633.285C393.664 639.95 350.092 647.84 301.013 653.85C282.788 656.082 262.449 657.335 245.63 660" stroke="#4B0BFF" stroke-opacity="0.08" stroke-width="240" stroke-linecap="round"/>
<path d="M367.092 870.644C367.092 828.606 363.149 813.665 363.149 771.627C363.149 750.526 359.359 730.342 359.359 709.24C359.359 689.904 356.863 672.01 353.535 652.527C350.847 636.791 349.055 619.182 349.055 605.598C348.579 603.672 350.997 598.14 363.149 601.523C370.557 603.586 373.681 606.643 379.069 616.164C395.848 645.814 402.118 696.607 408.415 730.836C413.835 760.298 418.807 791.805 420.826 821.855C421.472 831.466 418.834 844.841 421.264 854.244C422.665 859.662 423.608 876.069 424.988 870.644C439.543 882.534 436.855 870.644 443.575 847.095C455.677 813.793 441.766 766.785 445.815 730.836C448.873 703.681 451.903 679.854 452.086 652.527C452.203 635.144 457.014 569.872 468.282 576.417C487.475 582.958 494.348 596.409 499.57 614.151C511.942 652.527 509.86 739.141 511.942 783.561C513.469 816.162 505.573 850.988 498.226 882.817C497.568 885.667 504.522 854.341 504.565 854.244C516.212 850.219 512.561 873.76 510.734 870.644C518.725 859.221 527.364 863.474 533.698 850.636C545.013 827.708 554.123 802.693 561.807 777.985C572.037 745.09 574.727 711.195 577.358 676.716C580.068 641.211 584.567 605.394 586.484 569.872M586.484 569.872C586.578 568.127 585.742 566.722 586.484 569.872ZM586.484 569.872C586.484 569.872 589.565 566.08 592.297 582.958C596.702 610.168 593.62 768.681 570.347 847.095" stroke="#762105" stroke-width="100" stroke-linecap="round"/>
<path d="M532 578.482C551.557 578.482 571.114 578.482 590.671 578.482C601.839 578.482 611.5 574.603 622.176 570.899C625.106 569.882 631.557 564.806 631.557 571.093C631.557 611.152 633.223 651.732 630.093 691.64C627.585 723.61 622.938 755.275 618.326 786.847C614.291 814.467 605.002 839.929 598.588 866.758C598.058 868.974 596.893 881.084 593.925 881.729C590.427 882.489 586.29 881.794 582.755 881.794C575.418 881.794 560.18 885.063 553.5 880.836C550.045 878.65 551.69 867.057 551.087 863.453C551.087 837.413 547.972 814.351 547.4 789.634C546.131 734.86 541.814 680.217 540.839 625.404C540.646 614.609 540.784 603.797 540.784 592.999C540.784 585.051 545.136 600.219 545.882 602.332C571.948 676.249 583.06 753.423 584.652 833.381C584.836 842.599 584.707 851.833 584.707 861.055C584.707 864.686 584.707 849.905 584.707 849.778C584.707 811.213 585.871 773.058 589.37 734.675C592.044 705.347 596.419 676.495 596.419 646.921C596.419 638.471 598.025 630.921 593.545 624.562C591.374 621.48 589.045 618.664 586.659 615.812C585.432 614.346 583.376 613.798 582.755 612.313" stroke="#5E1A04" stroke-width="60" stroke-linecap="round"/>
<path d="M645 562C645 593.072 643.983 596.032 639.001 656.561C633.921 718.272 615.56 876.931 615 889" stroke="#5D24FF" stroke-width="6" stroke-linecap="round"/>
<path d="M360 287.615C359.851 288.448 319.214 278.922 314.301 278.205C304.225 276.735 291.722 276.741 281.44 277.522C269.347 278.441 256.532 281.228 246.187 285.718C241.489 287.756 235.155 290.446 231.171 293.078C227.566 295.46 233.213 300.804 235.632 302.64C243.073 308.287 258.798 309.646 268.819 311.214C282.325 313.329 296.84 313.058 310.601 312.884C319.092 312.776 333.509 311.032 340.415 307.42" stroke="#AEE50A" stroke-width="60" stroke-linecap="round"/>
<path d="M532 274.301C537.52 267.057 549.233 260.658 558.473 256.758C570.743 251.579 585.393 247.617 599.014 245.698C610.488 244.082 626.886 242.754 638.17 245.965C646.188 248.246 653.131 251.425 660.379 254.937C666.075 257.696 666.424 257.927 661.875 260.533C651.074 266.72 640.212 272.751 628.257 277.499C619.766 280.871 610.202 283.451 601.229 285.849C590.534 288.708 578.979 287.892 567.889 287.892" stroke="#AEE50A" stroke-width="60" stroke-linecap="round"/>
<path d="M476.123 403.5C474.79 384 484.135 338.043 511.623 307.5C538.623 277.5 565 266 609.123 262" stroke="#597605" stroke-width="10" stroke-linecap="round"/>
<path d="M386 320C383.006 325.048 379.5 334.914 360 345.5C340.5 356.085 320 355 309.5 355C294.5 355 267 347.66 254.5 342C244.387 337.42 221.5 326 205 306C209.5 291.5 227.57 269.218 270.5 254.5C305.5 242.5 335 248.5 350.5 254.5C366 260.5 392 278.576 392 306" stroke="#597605" stroke-width="10" stroke-linecap="round"/>
<path d="M527.718 303.015C510.968 283.637 519.664 259.625 542.647 242.686C576.875 217.46 657.712 243.42 669 254.023C657.348 276.692 628.939 295.797 612.924 305.941C596.909 316.084 555.767 335.464 527.718 303.015Z" stroke="#597605" stroke-width="10" stroke-linecap="round"/>
<path d="M284.938 544V593.498L312 897H98" stroke="black" stroke-width="10" stroke-linecap="round"/>
<path d="M657.315 544V593.498L630 897H846" stroke="black" stroke-width="10" stroke-linecap="round"/>
<path d="M404 166.778C404 152.374 417.778 137.899 431 135C429.889 141.133 428.5 157.773 426.5 168.477C423.465 184.72 404 177.482 404 166.778Z" fill="#0BC0FD" stroke="#0BC0FD" stroke-width="6" stroke-linecap="round"/>
<path d="M421.171 81.3789C422.91 70.6647 435.154 61.5494 445.579 60.9786C443.992 65.4072 440.925 77.6186 438.108 85.3412C433.835 97.0602 419.878 89.3414 421.171 81.3789Z" fill="#0BC0FD" stroke="#0BC0FD" stroke-width="6" stroke-linecap="round"/>
<path d="M469.645 220.141C467.399 203.167 482.512 185.779 497.278 178.378C496.893 185.782 497.812 205.613 497.067 218.547C495.937 238.174 471.314 232.755 469.645 220.141Z" fill="#0BC0FD" stroke="#0BC0FD" stroke-width="6" stroke-linecap="round"/>
<path d="M488.478 119.495C487.621 109.721 503.278 89.8764 520.732 81.1066C519.497 88.4215 518.126 108.233 515.898 121.002C512.515 140.38 489.867 135.334 488.478 119.495Z" fill="#0BC0FD" stroke="#0BC0FD" stroke-width="6" stroke-linecap="round"/>
<path d="M545.731 170.445C544.493 157.69 555.745 143.696 567.488 140C567.008 145.525 567.178 160.379 566.284 170.028C564.927 184.671 546.651 179.923 545.731 170.445Z" fill="#0BC0FD" stroke="#0BC0FD" stroke-width="6" stroke-linecap="round"/>
<path d="M566.818 69.4564C566.822 58.3435 577.123 47.1006 587.006 44.7924C586.174 49.53 585.131 62.3762 583.633 70.6457C581.36 83.1948 566.815 77.7152 566.818 69.4564Z" fill="#0BC0FD" stroke="#0BC0FD" stroke-width="6" stroke-linecap="round"/>
<path d="M507.461 23.36C510.244 13.0676 521.457 4.23247 531.694 4.6989C530.324 11.4436 527.133 21.6278 523.6 28.8929C518.24 39.9176 505.392 31.0089 507.461 23.36Z" fill="#0BC0FD" stroke="#0BC0FD" stroke-width="6" stroke-linecap="round"/>
<path d="M466.793 558.877C383.442 560.244 284 549.911 284 542.653C284 531.978 398.57 526 466.793 526C546.138 526 657 538.81 657 542.653C657 550.207 550.143 557.511 466.793 558.877Z" stroke="black" stroke-width="10" stroke-linecap="round"/>
<path d="M285 595C330.5 605 423.756 610 459.5 610C510 610 536.5 610 602.5 597" stroke="black" stroke-width="10" stroke-linecap="round"/>
<path d="M312 897C356.998 907 449.227 912 484.576 912C534.52 912 588.5 909 629 897" stroke="black" stroke-width="10" stroke-linecap="round"/>
<path d="M476 544.001C476 471.5 476 418.545 446 374.001C407.949 317.502 346 295.501 299.5 298.501" stroke="#597605" stroke-width="10" stroke-linecap="round"/>
<path d="M677 263C664.615 285.558 637.692 306.154 621 314" stroke="#543AF6" stroke-width="6" stroke-linecap="round"/>
<path d="M374 254C389.5 263.5 404 286 404 306" stroke="#543AF6" stroke-width="6" stroke-linecap="round"/>
</svg>
