<svg width="972" height="865" viewBox="0 0 972 865" fill="none" xmlns="http://www.w3.org/2000/svg">
<path d="M705.888 265C638.946 265 583.052 272.119 523.568 282.763C423.203 300.722 317.668 327.18 242.609 356.273C166.817 385.651 101.927 427.057 101.927 466.949C101.927 480.465 93.3762 498.792 128.204 508.486C165.512 518.871 246.044 511.642 283.035 504.387C424.718 476.6 544.083 437.359 691.335 412.021C726.391 405.989 818.694 398.578 858.697 405.736C886.113 410.642 863.722 457.018 857.08 463.67C832.551 488.235 757.737 507.514 701.441 523.243C613.915 547.699 519.244 571.524 421.291 591.015C373.664 600.492 330.092 611.71 281.013 620.255C262.788 623.429 242.449 625.21 225.63 629" stroke="#4B0BFF" stroke-opacity="0.08" stroke-width="200" stroke-linecap="round"/>
<path d="M238 626.506C248.796 620.366 256.366 613.788 264.709 607.588C274.187 600.543 282.953 594.071 291.447 582.817C300.865 570.338 308.513 558.168 317.809 545.578C320.693 541.672 323.266 537.394 325.929 533.299C326.645 532.198 326.803 531.215 327.763 530.669" stroke="#FFECE0" stroke-width="90" stroke-linecap="round"/>
<path d="M479.433 321.896C479.433 323.824 479.518 325.771 479.378 327.694C479.193 330.225 478.387 332.656 477.824 335.114C477.028 338.588 476.553 342.144 476.174 345.683C475.712 349.99 474.209 353.863 472.498 357.791C471.605 359.843 470.218 361.8 468.975 363.644C468.283 364.67 467.097 367.26 465.952 367.833" stroke="#FFECE0" stroke-width="30" stroke-linecap="round"/>
<path d="M536.434 295.481C536.343 297.91 536.179 300.359 536.309 302.785C536.43 305.053 536.87 307.21 537.296 309.401C538.243 314.267 539.159 319.118 540.386 323.882C543.337 335.345 546.298 347.536 551.724 357.508C553.969 361.634 555.99 365.66 559.068 368.819C560.201 369.982 561.362 370.521 562.577 371.52" stroke="#FFECE0" stroke-width="30" stroke-linecap="round"/>
<path d="M460.959 370.828C460.959 371.855 461.795 372.575 462.498 373.228C464.654 375.23 466.684 377.369 468.989 379.206C470.905 380.733 472.957 382.215 475.078 383.45C476.733 384.413 478.763 384.723 480.598 385.17C491.483 387.817 501.874 391.014 513.22 390.246C515.161 390.115 517.007 389.616 518.892 389.178C522.006 388.455 525.136 387.843 528.171 386.82C531.946 385.548 535.645 384.058 539.35 382.618C542.034 381.574 544.696 380.257 546.465 377.93C547.264 376.879 547.938 375.512 549.086 374.823" stroke="#FFECE0" stroke-width="30" stroke-linecap="round"/>
<path d="M487.672 323.644C494.162 323.644 501.282 323.913 507.089 320.454C507.977 319.925 510.921 317.155 511.832 319.011C513.359 322.121 513.934 325.998 514.939 329.303C516.884 335.693 519.128 342.042 521.375 348.332C522.955 352.756 524.494 357.197 526.118 361.605C527.126 364.34 528.502 367.708 525.55 369.608C521.528 372.197 514.903 373.333 510.182 372.271C506.497 371.442 502.896 369.053 499.807 366.945C493.317 362.515 490.958 353.921 493.219 346.501C493.754 344.745 494.835 340.121 497.297 340.121C498.268 340.121 499.224 340.254 500.154 340.121" stroke="#FFECE0" stroke-width="30" stroke-linecap="round"/>
<path d="M721 611L721 792.5" stroke="#FFECE0" stroke-width="80" stroke-linecap="round"/>
<path d="M399.81 460.223C399.81 572.584 380.717 684.114 399.985 795.137C403.006 812.539 412.553 821.02 428.414 806.96C480.175 761.077 485.096 685.849 485.096 624.803C485.096 597.286 471.176 531.318 480.336 505.335C484.67 493.041 491.574 535.19 492.115 540.18C497.995 594.387 503.114 648.489 506.505 702.892C508.416 733.557 508.636 764.86 514.928 795.137C515.611 798.42 515.111 810.065 520.544 805.249C527.649 798.95 530.966 793.088 534.758 784.249C558.83 728.137 567.223 671.499 567.223 611.736C567.223 581.092 564.156 551.076 561.608 520.579C560.699 509.707 560.906 498.804 560.906 487.912C560.906 481.812 565.303 499.477 567.223 505.335C589.489 573.254 595.756 645.539 609.866 715.026C614.91 739.867 624.08 763.294 624.08 788.915C624.08 851.632 620 669.717 620 607C620 576.563 630.398 539.972 630.398 509.535C630.398 488.157 626.695 466.402 643.033 449.023" stroke="#222222" stroke-width="100" stroke-linecap="round"/>
<path d="M314.003 536C314.003 495.25 324.229 459.696 356.483 431.5C371.422 418.44 397.818 407.625 419.331 407.625C426.1 412.625 424.701 419.984 428.428 426.5C432.993 434.48 438 438 453.044 440C474.5 444.5 480.969 446.266 494.578 446.266C509.308 446.266 530.545 450.536 544.5 446.266C562.396 440.79 610.667 431.858 614.5 417C635.905 420 630.695 418.945 654.5 424C678.046 429 700.059 444.66 707.5 464C711.732 475 715 482.5 721 503.5C724.622 516.178 724.45 515.5 730.5 540C731.578 543.488 734.928 554.838 735.5 559C737.012 570 751 567.5 724.45 571.5" stroke="#222222" stroke-width="110" stroke-linecap="round"/>
<path d="M686 617.032V821M757 603V821" stroke="black" stroke-width="10" stroke-linecap="round"/>
<ellipse cx="526.945" cy="201.646" rx="133.34" ry="78.444" transform="rotate(-51.0868 526.945 201.646)" fill="#FFECE0"/>
<ellipse cx="486.334" cy="166.046" rx="143.025" ry="81.9234" transform="rotate(-81.5596 486.334 166.046)" fill="#FFECE0"/>
<path d="M447.183 158L447.433 175.021" stroke="#5D24FF" stroke-width="16" stroke-linecap="round"/>
<path d="M528.366 171L528.616 188.021" stroke="#5D24FF" stroke-width="16" stroke-linecap="round"/>
<ellipse cx="626.738" cy="209.7" rx="36.0823" ry="32.9338" transform="rotate(-75 626.738 209.7)" fill="#FFECE0"/>
<path d="M368.822 450C362.413 475.5 361.345 514.5 356.005 582C349.432 665.083 350.013 783.285 350.013 792.588C350.013 801.891 350.013 825.371 350.013 831.13C350.013 836.889 416.804 858.154 455.275 853.28C493.747 848.407 481.376 845.899 530 849" stroke="black" stroke-width="10" stroke-linecap="round"/>
<path d="M664.246 485C652.787 538.442 660.087 688.736 660.087 738C660.087 799.5 660.087 805 660.087 833" stroke="black" stroke-width="10" stroke-linecap="round"/>
<path d="M590 362.5C612.977 365.63 679.652 372.918 707.891 393C734.609 412 745.264 434.791 769.876 498C794.99 562.5 791.877 571.628 791.877 579.772C791.877 587.916 688.55 610 680 610C672.242 610 673.786 577.53 673.786 560.177" stroke="black" stroke-width="10" stroke-linecap="round"/>
<path d="M446 356C392.681 358.995 352.411 356.075 323.774 385C293.533 415.545 273.982 472.949 268 500.5C265.012 514.262 261.947 533.334 263 541C264.317 550.583 336.973 578.203 350.797 580" stroke="black" stroke-width="10" stroke-linecap="round"/>
<path d="M446 356C448.127 363.257 457.282 375.188 466.734 382.226C477.367 390.143 495.963 396.576 508.203 396.576C520.442 396.576 536.38 400.039 553.924 387.174C559.322 383.215 565.62 380.741 572 360.453" stroke="black" stroke-width="10" stroke-linecap="round"/>
<path d="M463.315 212C460.815 223.5 455.615 232.1 460.815 236.5C466.015 240.9 468.315 240 468.315 240" stroke="black" stroke-width="10" stroke-linecap="round"/>
<path d="M558.679 153.715L578.996 162.285" stroke="black" stroke-width="10" stroke-linecap="round"/>
<path d="M417 123.353L427.877 118.385" stroke="black" stroke-width="10" stroke-linecap="round"/>
<path d="M449.77 162L450.02 179.021" stroke="black" stroke-width="16" stroke-linecap="round"/>
<path d="M530.953 175L531.203 192.021" stroke="black" stroke-width="16" stroke-linecap="round"/>
<path d="M597.587 140L616.087 152" stroke="black" stroke-width="10" stroke-linecap="round"/>
<path d="M477.966 109.445C476.41 113.807 474.374 124.465 478.676 132.205C482.977 139.944 521.772 153.114 540.632 158.732" stroke="black" stroke-width="10" stroke-linecap="round"/>
<path d="M406.087 171C404.087 204.5 402.305 214.313 406.087 237C411.087 267 428.83 286.706 438.587 295C458.587 312 472.087 320 483.587 318.5C495.087 317 516.087 314.5 541.587 295C558.116 282.36 600.087 237 600.087 237C600.087 237 604.864 248.5 624.587 248.5C645.587 248.5 658.587 222.5 658.587 204C658.587 185 646.587 173 631.587 177" stroke="black" stroke-width="10" stroke-linecap="round"/>
<path d="M404 115C404 84 413.587 45 429.087 29C443.028 14.6094 459.754 28.5 462.587 29M500.587 29C503.92 24.8333 513.751 16.9102 528.087 15.5C558.587 12.5 581.087 29.5 597.087 47C608.087 59.0313 634.087 109.5 645.587 144" stroke="black" stroke-width="10" stroke-linecap="round"/>
<ellipse cx="535.587" cy="214" rx="23" ry="4" fill="#D94B71" fill-opacity="0.4"/>
<ellipse cx="433.087" cy="196" rx="16.5" ry="4" fill="#D94B71" fill-opacity="0.4"/>
<path fill-rule="evenodd" clip-rule="evenodd" d="M529.668 1.34334C526.54 0.730554 523.307 0.409424 520 0.409424C517.982 0.409424 515.991 0.52901 514.036 0.761482C512.217 0.738919 510.4 0.729214 508.587 0.729214C493.111 0.729214 479.46 8.54155 471.362 20.4377C469.587 15.5045 466.291 11.2472 461.651 8.49685C451.047 2.21019 437.197 6.03392 429.617 16.9411C428.095 18.1951 424.203 21.5062 420.836 26.2181C415.179 34.1345 407.94 45.8358 404.082 56.5876C403.755 57.4982 403.246 58.8289 402.635 60.4248L402.635 60.4255L402.635 60.4255L402.635 60.4256C400.911 64.9279 398.38 71.5394 396.867 76.7756C394.542 84.8193 392.093 96.9578 395.897 109.552C399.888 122.769 413.468 129.208 426.227 123.933C435.804 119.973 442.197 110.54 443.103 100.492C445.345 106.444 448.696 111.756 452.894 116.198C452.948 116.287 453.002 116.376 453.056 116.465C453.531 117.244 454.336 118.549 455.305 119.966L455.321 119.989C455.973 120.943 458.191 124.183 461.536 127.52C470.808 136.767 483.9 147.781 498.516 155.378C502.885 157.648 510.196 161.171 518.294 163.98C522.335 165.382 527.584 166.964 533.407 167.957C538.456 168.817 548.091 170.007 559.244 167.339C560.767 166.974 562.261 166.543 563.723 166.048C571.101 167.595 578.685 167.431 585.894 165.668C592.423 169.357 599.965 171.463 608 171.463C632.853 171.463 653 151.316 653 126.463C653 106.881 645.703 87.2454 639.311 73.7974C632.94 60.3951 623.162 44.1656 611.267 33.4106C585.544 10.1542 557.55 3.20195 529.668 1.34334ZM450.784 112.69C450.783 112.686 450.824 112.748 450.911 112.886C450.828 112.763 450.785 112.693 450.784 112.69Z" fill="black" fill-opacity="0.85"/>
<path d="M461.242 319.466C461.242 320.781 461.242 325.285 461.242 332.781C461.242 340.277 458.414 349.384 457 353M550.333 317C551.394 329.329 552.117 330.762 552.985 334.26C554.576 340.671 555.636 342.151 562 351.027" stroke="black" stroke-width="10" stroke-linecap="round"/>
<path d="M163.128 287.644C163.128 274.708 163.128 261.773 163.128 248.837C163.128 243.084 163.128 237.332 163.128 231.579C163.128 230.437 163.261 229.257 162.905 228.145C162.234 226.049 162.638 223.366 162.781 221.234C162.941 218.866 162.524 215.78 163.35 213.485C163.78 212.292 163.288 211.638 162.682 210.587C161.283 208.159 160.863 205.234 160.283 202.603C160.044 201.523 159.439 199.926 161.346 200.413C164.273 201.16 163.918 207.577 164.018 209.471C164.59 220.257 165.426 231.207 168.026 241.796C170.577 252.186 173.851 262.423 176.042 272.877C176.685 275.945 177.15 278.92 177.378 282.042C177.489 283.554 177.693 285.06 177.799 286.571C177.838 287.128 178.216 288.688 177.823 288.245C174.227 284.189 171.789 279.346 169.659 274.615C168.875 272.873 168.5 263.823 168.5 263.823" stroke="#FFECE0" stroke-width="10" stroke-linecap="round"/>
<path d="M189.629 284.041C190.085 284.44 189.997 279.672 190.098 278.965C190.556 275.763 192.027 272.431 193.852 269.796C195.22 267.819 196.337 265.621 197.477 263.505C198.281 262.011 197.69 259.146 197.69 257.469C197.69 247.67 200.761 238.119 200.761 228.339C200.761 224.049 200.74 220.228 201.827 216.098C202.611 213.118 204.513 207.584 207.116 213.027C208.18 215.252 207.83 218.31 206.433 220.321C204.15 223.608 204.216 226.797 204.216 230.663C204.216 236.134 204.6 241.669 204.6 247.191C204.6 253.204 204.6 259.218 204.6 265.232C204.6 269.851 204.649 275.056 205.559 279.605C206.214 282.878 207.578 290.592 204.898 293.168C203.035 294.959 201.603 287.292 201.315 285.896C200.769 283.241 200.761 280.718 200.761 278.027C200.761 276.016 200.493 270.969 198.842 275.511C197.339 279.644 196.648 284.762 193.83 288.285C192.069 290.486 187.793 298.764 184.426 293.253C182.991 290.906 182.926 288.863 180.886 287.026C178.727 285.084 181.991 280.155 183.231 278.56C184.577 276.83 184.639 278.663 184.639 280.202" stroke="#FFECE0" stroke-width="10" stroke-linecap="round"/>
<path d="M214.196 309.375C217.011 309.375 218.688 306.554 221.276 305.835C222.874 305.392 224.389 304.193 225.882 303.447C227.66 302.558 229.829 301.366 231.256 299.992C233.288 298.037 234.672 295.665 237.227 294.32C239.203 293.28 241.644 291.288 242.815 289.372C243.924 287.556 245.879 284.757 247.805 283.657C248.605 283.2 248.81 282.34 249.383 281.652C250.348 280.494 251.52 279.67 252.582 278.667C254.738 276.63 257.905 275.212 260.835 275.212C262.504 275.212 263.087 276.234 262.349 277.92C261.534 279.784 259.634 280.856 258.574 282.505C257.682 283.893 256.835 285.395 255.802 286.728C253.12 290.188 250.59 293.433 248.551 297.284C247.564 299.149 247.436 301.288 246.44 303.17C245.352 305.225 243.586 306.973 242.601 309.077C239.646 315.39 236.784 321.768 233.965 328.057C231.788 332.913 229.527 338.174 228.377 343.347C227.976 345.153 223.982 344.307 222.641 344.307" stroke="#FFECE0" stroke-width="10" stroke-linecap="round"/>
<path d="M126.293 226.846C126.293 229.536 126.096 231.141 127.615 233.35C129.248 235.726 130.518 238.075 131.965 240.58C133.583 243.38 134.224 246.872 135.334 249.899C136.647 253.478 138.113 257.003 139.344 260.626C140.46 263.911 141.656 267.41 143.395 270.414C144.168 271.748 145.932 272.556 147.021 273.677C148.449 275.147 149.386 276.899 150.305 278.71C152.026 282.103 154.829 283.751 158.537 284.425C159.078 284.523 163.596 286.117 161.607 287.112" stroke="#FFECE0" stroke-width="10" stroke-linecap="round"/>
<path d="M98.271 257.171C98.271 264.597 102.517 270.99 106.929 276.662C108.15 278.233 108.641 280.208 110.085 281.652C111.379 282.947 113.58 284.823 115.246 285.576C116.606 286.191 117.801 287.304 118.999 288.178C121.817 290.234 124.663 291.997 127.359 294.234C129.65 296.136 135.505 299.386 135.505 302.85" stroke="#FFECE0" stroke-width="10" stroke-linecap="round"/>
<path d="M97.8871 260.242C98.6349 260.335 100.182 262.196 100.745 262.758C102.003 264.016 102.978 265.469 104.413 266.597C106.794 268.468 108.805 272.132 109.019 275.127C109.281 278.794 112.18 282.932 114.777 285.384C118.999 289.372 120.524 295.355 124.757 299.395C129.313 303.744 139.869 301.587 142.031 295.557C142.879 293.19 143.513 290.693 144.121 288.263C144.608 286.312 145.869 284.928 145.869 282.911C145.869 281.31 145.762 280.625 145.102 279.264C144.243 277.496 145.355 275.231 142.798 275.596" stroke="#FFECE0" stroke-width="10" stroke-linecap="round"/>
<path d="M125.141 299.779C125.141 303.529 125.562 306.626 126.271 310.292C126.859 313.329 129.417 314.726 130.515 317.628C131.334 319.792 131.745 322.245 132.903 324.261C133.245 324.856 134.352 326.947 135.121 327.033C136.864 327.227 138.749 327.033 140.495 327.033" stroke="#FFECE0" stroke-width="10" stroke-linecap="round"/>
<path d="M133.202 327.417C133.202 331.493 135.472 334.081 137.424 337.568C139.747 341.715 141.288 345.879 143.95 349.872C146.322 353.43 149.316 356.256 151.435 360.023C152.319 361.595 153.6 362.931 154.698 364.352C156.602 366.817 157.415 369.916 159.112 372.499C160.131 374.048 161.246 375.532 162.972 376.337C164.959 377.265 167.401 376.767 169.498 377.233C172.833 377.974 176.914 377.318 180.331 377.318C185.798 377.318 191.449 377.56 195.984 373.949C198.012 372.334 200.761 370.936 200.761 368.106" stroke="#FFECE0" stroke-width="10" stroke-linecap="round"/>
<path d="M186.74 378.238C186.74 384.976 186.332 391.764 188.024 398.344C190.647 408.545 193.165 418.704 194.25 429.192C195.174 438.118 197.719 446.799 199.099 455.667C201.315 469.918 200.789 484.265 201.95 498.587C202.847 509.65 204.707 521.165 204.707 532.239C204.707 536.818 207.8 542.133 208.985 546.594C210.724 553.141 213.263 573.236 213.263 566.462" stroke="#FFECE0" stroke-width="50" stroke-linecap="round"/>
<path d="M221 599C218.266 593.673 218.87 592.232 216.689 586.516C214.523 580.84 211.033 571.902 211.033 565.551C211.033 557.443 193 414.148 193 406" stroke="#FFECE0" stroke-width="60" stroke-linecap="round"/>
<path d="M184.413 327.108C184.464 325.421 184.582 323.717 186.4 323.381C187.094 323.252 187.68 323.132 188.388 323.132C189.034 323.132 189.692 323.671 190.246 324.002C191.088 324.505 192.265 324.767 192.948 325.493C193.884 326.488 194 329.598 194 330.974C194 333.833 194.04 336.644 192.831 339.286C191.751 341.645 191.461 344.173 189.895 346.327C188.078 348.825 183.321 349.837 180.529 349.074C176.918 348.088 174.256 344.467 173.89 340.583C173.811 339.743 173.042 338.632 172.487 338.043C171.623 337.124 171.027 336.015 170.37 334.923C168.828 332.363 166.869 329.825 165.823 326.984C165.166 325.199 164.539 323.34 162.9 322.331C161.738 321.616 160.79 319.944 159.861 318.907C159.2 318.17 157.543 316.902 158.12 315.677C159.499 312.744 163.308 311.968 166.018 311.7C168.851 311.42 171.766 310.82 174.592 310.706C176.895 310.614 179.544 309.975 181.828 310.582C183.245 310.959 183.776 312.087 184.413 313.44" stroke="#FFECE0" stroke-width="60" stroke-linecap="round"/>
<path d="M214.918 339.886C214.918 334.488 220.183 331.265 220.761 326.065C221.071 323.281 222.549 321.066 224.184 318.907C225.53 317.13 226.379 315.017 227.568 313.129C228.629 311.443 229.059 309.864 230.613 308.483C231.654 307.557 232.887 307.028 233.893 306.166C234.753 305.428 235.87 305.113 236.704 304.279C237.298 303.684 238.043 302.427 238.812 302.171" stroke="#FFECE0" stroke-width="30" stroke-linecap="round"/>
<path d="M215 374L258 568" stroke="black" stroke-width="10" stroke-linecap="round"/>
<path d="M165.587 384.323C169.254 442.082 180.771 560.903 183.087 578.081C188.087 615.172 190.152 617.472 193.587 628.458C198.087 642.852 203.482 649.495 205.587 652.263C213.587 662.781 229.284 679.924 250 670.823C273.5 660.5 320 624 344.5 578.081" stroke="black" stroke-width="10" stroke-linecap="round"/>
<path d="M164.087 381.823C152.587 376.323 135.587 357.823 131.587 342.323C128.053 328.629 128.167 323.424 121.588 312.323C113.588 298.823 106.088 286.323 100.088 274.823C96.4903 267.927 92.4701 259.116 94.5871 253.823C97.5867 246.323 105.673 252.409 107.087 253.823C111.586 258.323 114.587 267.823 122.587 279.823C130.587 291.823 134.5 291.91 137.087 289.323C142.087 284.323 132 266 125 249.5C118.099 233.233 117.587 217.323 126.087 219.823C134.512 222.301 138.083 233.711 142.5 245C146.413 255 147.912 258.677 153 270C158.064 281.269 159.755 274.657 159.588 268.823C159.922 244.823 154.087 218.823 154.087 207.323C154.087 187.823 168.361 186.692 172.087 205.323C173.587 212.823 175.451 224.323 176.087 228.323C179.587 250.323 179.688 265.223 180.088 268.823C180.588 273.323 183.088 276.823 186.588 275.823C189.388 275.023 190.922 270.99 191.088 268.823C192.665 248.323 195 225.823 195.588 218.823C196.301 210.338 199.088 206.323 202.088 205.323C206.588 203.823 213.088 206.323 214.588 212.823C216.248 220.017 212.587 290.823 213.087 296.823C213.587 302.823 219.588 303.323 227.088 295.823C234.587 287.323 236.587 286.323 249.087 273.823C254.843 268.068 262.246 266.279 265.587 267.323C273.587 269.823 271.055 278.403 261.587 293.323C252.119 308.243 239.588 323.823 236.088 334.323C235.088 335.323 223.541 361.744 214.588 370.323" stroke="black" stroke-width="10" stroke-linecap="round"/>
<path d="M635 510C633.117 515.473 630.764 525.894 630.764 529.157C623.703 574.807 628.743 627.854 628.743 677.255C628.743 718.503 628.743 759.752 628.743 801" stroke="black" stroke-opacity="0.4" stroke-width="60" stroke-linecap="round"/>
<path d="M700 420C718 432 734.627 473.576 744.916 494.584C752.248 509.555 761 540.5 763 556.5" stroke="black" stroke-opacity="0.4" stroke-width="40" stroke-linecap="round"/>
<path d="M341.38 562.362C342.474 556.383 343.539 551.329 346.122 542.371C347.285 538.34 348.425 534.142 349 531" stroke="black" stroke-opacity="0.4" stroke-width="40" stroke-linecap="round"/>
<path d="M320.055 593.98C310.591 607.43 297.621 620.422 284.303 632.797C275.659 640.83 255.811 654.658 246.5 659.5" stroke="#5D24FF" stroke-width="6" stroke-linecap="round"/>
<path d="M710.709 403C732.227 425.119 751.281 473.361 778.827 574.476" stroke="#5D24FF" stroke-width="6" stroke-linecap="round"/>
<path d="M572 44.209C587.212 53.5073 601.537 74.598 623.182 119.164" stroke="#5D24FF" stroke-width="6" stroke-linecap="round"/>
<path d="M662 607C661 634 659.872 636.118 661.193 698.863C662.515 761.608 661.744 801.765 661.193 814" stroke="#5D24FF" stroke-width="6" stroke-linecap="round"/>
</svg>
