<svg width="709" height="865" viewBox="0 0 709 865" fill="none" xmlns="http://www.w3.org/2000/svg">
<path d="M149 626.506C159.796 620.366 167.366 613.788 175.709 607.588C185.187 600.543 193.953 594.071 202.447 582.817C211.865 570.338 219.513 558.168 228.809 545.578C231.693 541.672 234.266 537.394 236.929 533.299C237.645 532.198 237.803 531.215 238.763 530.669" stroke="#FFECE0" stroke-width="90" stroke-linecap="round"/>
<path d="M390.433 321.896C390.433 323.824 390.518 325.771 390.377 327.694C390.193 330.225 389.387 332.656 388.824 335.114C388.028 338.588 387.553 342.144 387.174 345.683C386.712 349.99 385.209 353.863 383.498 357.791C382.605 359.843 381.218 361.8 379.975 363.644C379.283 364.67 378.097 367.26 376.952 367.833" stroke="#FFECE0" stroke-width="30" stroke-linecap="round"/>
<path d="M447.434 295.481C447.343 297.91 447.179 300.359 447.309 302.785C447.43 305.053 447.87 307.21 448.296 309.401C449.243 314.267 450.159 319.118 451.386 323.882C454.337 335.345 457.298 347.536 462.724 357.508C464.969 361.634 466.99 365.66 470.068 368.819C471.201 369.982 472.362 370.521 473.577 371.52" stroke="#FFECE0" stroke-width="30" stroke-linecap="round"/>
<path d="M371.959 370.828C371.959 371.855 372.795 372.575 373.498 373.228C375.654 375.23 377.684 377.369 379.989 379.206C381.905 380.733 383.957 382.215 386.078 383.45C387.733 384.413 389.763 384.723 391.598 385.17C402.483 387.817 412.874 391.014 424.22 390.246C426.161 390.115 428.007 389.616 429.892 389.178C433.006 388.455 436.136 387.843 439.171 386.82C442.946 385.548 446.645 384.058 450.35 382.618C453.034 381.574 455.696 380.257 457.465 377.93C458.264 376.879 458.938 375.512 460.086 374.823" stroke="#FFECE0" stroke-width="30" stroke-linecap="round"/>
<path d="M398.672 323.644C405.162 323.644 412.282 323.913 418.089 320.454C418.977 319.925 421.921 317.155 422.833 319.011C424.359 322.121 424.934 325.998 425.939 329.303C427.884 335.693 430.129 342.042 432.375 348.332C433.955 352.756 435.494 357.197 437.118 361.605C438.126 364.34 439.502 367.708 436.55 369.608C432.528 372.197 425.903 373.333 421.182 372.271C417.497 371.442 413.896 369.053 410.808 366.945C404.317 362.515 401.958 353.921 404.219 346.501C404.755 344.745 405.835 340.121 408.297 340.121C409.268 340.121 410.224 340.254 411.154 340.121" stroke="#FFECE0" stroke-width="30" stroke-linecap="round"/>
<path d="M632 611L632 792.5" stroke="#FFECE0" stroke-width="80" stroke-linecap="round"/>
<path d="M310.81 460.223C310.81 572.584 291.717 684.114 310.985 795.137C314.006 812.539 323.553 821.02 339.414 806.96C391.175 761.077 396.096 685.849 396.096 624.803C396.096 597.286 382.176 531.318 391.336 505.335C395.67 493.041 402.574 535.19 403.115 540.18C408.995 594.387 414.114 648.489 417.505 702.892C419.416 733.557 419.636 764.86 425.928 795.137C426.611 798.42 426.111 810.065 431.544 805.249C438.649 798.95 441.966 793.088 445.758 784.249C469.83 728.137 478.223 671.499 478.223 611.736C478.223 581.092 475.156 551.076 472.608 520.579C471.699 509.707 471.906 498.804 471.906 487.912C471.906 481.812 476.303 499.477 478.223 505.335C500.489 573.254 506.756 645.539 520.866 715.026C525.91 739.867 535.08 763.294 535.08 788.915C535.08 851.632 531 669.717 531 607C531 576.563 541.398 539.972 541.398 509.535C541.398 488.157 537.695 466.402 554.033 449.023" stroke="#222222" stroke-width="100" stroke-linecap="round"/>
<path d="M225.003 536C225.003 495.25 235.229 459.696 267.483 431.5C282.422 418.44 308.818 407.625 330.331 407.625C337.1 412.625 335.701 419.984 339.428 426.5C343.993 434.48 349 438 364.045 440C385.5 444.5 391.969 446.266 405.578 446.266C420.308 446.266 441.545 450.536 455.5 446.266C473.396 440.79 521.667 431.858 525.5 417C546.905 420 541.695 418.945 565.5 424C589.046 429 611.059 444.66 618.5 464C622.732 475 626 482.5 632 503.5C635.622 516.178 635.45 515.5 641.5 540C642.578 543.488 645.928 554.838 646.5 559C648.012 570 662 567.5 635.45 571.5" stroke="#222222" stroke-width="110" stroke-linecap="round"/>
<path d="M597 617.032V821M668 603V821" stroke="black" stroke-width="10" stroke-linecap="round"/>
<ellipse cx="437.945" cy="201.646" rx="133.34" ry="78.444" transform="rotate(-51.0868 437.945 201.646)" fill="#FFECE0"/>
<ellipse cx="397.334" cy="166.046" rx="143.025" ry="81.9234" transform="rotate(-81.5596 397.334 166.046)" fill="#FFECE0"/>
<path d="M355.587 160L355.837 177.021" stroke="#5D24FF" stroke-width="16" stroke-linecap="round"/>
<path d="M436.77 173L437.02 190.021" stroke="#5D24FF" stroke-width="16" stroke-linecap="round"/>
<ellipse cx="537.738" cy="209.7" rx="36.0823" ry="32.9338" transform="rotate(-75 537.738 209.7)" fill="#FFECE0"/>
<path d="M279.822 450C273.413 475.5 272.345 514.5 267.005 582C260.432 665.083 261.013 783.285 261.013 792.588C261.013 801.891 261.013 825.371 261.013 831.13C261.013 836.889 327.804 858.154 366.275 853.28C404.747 848.407 392.376 845.899 441 849" stroke="black" stroke-width="10" stroke-linecap="round"/>
<path d="M575.246 485C563.787 538.442 571.087 688.736 571.087 738C571.087 799.5 571.087 805 571.087 833" stroke="black" stroke-width="10" stroke-linecap="round"/>
<path d="M501 362.5C523.977 365.63 590.652 372.918 618.891 393C645.609 412 656.264 434.791 680.876 498C705.99 562.5 702.877 571.628 702.877 579.772C702.877 587.916 599.55 610 591 610C583.242 610 584.786 577.53 584.786 560.177" stroke="black" stroke-width="10" stroke-linecap="round"/>
<path d="M357 356C303.681 358.995 263.411 356.075 234.774 385C204.533 415.545 184.982 472.949 179 500.5C176.012 514.262 172.947 533.334 174 541C175.317 550.583 247.973 578.203 261.797 580" stroke="black" stroke-width="10" stroke-linecap="round"/>
<path d="M357 356C359.127 363.257 368.282 375.188 377.734 382.226C388.367 390.143 406.963 396.576 419.203 396.576C431.442 396.576 447.38 400.039 464.924 387.174C470.322 383.215 476.62 380.741 483 360.453" stroke="black" stroke-width="10" stroke-linecap="round"/>
<path d="M374.315 212C371.815 223.5 366.615 232.1 371.815 236.5C377.015 240.9 379.315 240 379.315 240" stroke="black" stroke-width="10" stroke-linecap="round"/>
<path d="M469.679 153.715L489.996 162.285" stroke="black" stroke-width="10" stroke-linecap="round"/>
<path d="M328 123.353L338.877 118.385" stroke="black" stroke-width="10" stroke-linecap="round"/>
<path d="M360.77 162L361.02 179.021" stroke="black" stroke-width="16" stroke-linecap="round"/>
<path d="M441.953 175L442.203 192.021" stroke="black" stroke-width="16" stroke-linecap="round"/>
<path d="M508.587 140L527.087 152" stroke="black" stroke-width="10" stroke-linecap="round"/>
<path d="M388.966 109.445C387.41 113.807 385.374 124.465 389.676 132.205C393.977 139.944 432.772 153.114 451.632 158.732" stroke="black" stroke-width="10" stroke-linecap="round"/>
<path d="M317.087 171C315.087 204.5 313.305 214.313 317.087 237C322.087 267 339.83 286.706 349.587 295C369.587 312 383.087 320 394.587 318.5C406.087 317 427.087 314.5 452.587 295C469.116 282.36 511.087 237 511.087 237C511.087 237 515.864 248.5 535.587 248.5C556.587 248.5 569.587 222.5 569.587 204C569.587 185 557.587 173 542.587 177" stroke="black" stroke-width="10" stroke-linecap="round"/>
<path d="M315 115C315 84 324.587 45 340.087 29C354.028 14.6094 370.754 28.5 373.587 29M411.587 29C414.92 24.8333 424.751 16.9102 439.087 15.5C469.587 12.5 492.087 29.5 508.087 47C519.087 59.0313 545.087 109.5 556.587 144" stroke="black" stroke-width="10" stroke-linecap="round"/>
<ellipse cx="446.587" cy="214" rx="23" ry="4" fill="#D94B71" fill-opacity="0.4"/>
<ellipse cx="344.087" cy="196" rx="16.5" ry="4" fill="#D94B71" fill-opacity="0.4"/>
<path fill-rule="evenodd" clip-rule="evenodd" d="M440.668 1.34334C437.54 0.730554 434.307 0.409424 431 0.409424C428.982 0.409424 426.991 0.52901 425.036 0.761482C423.217 0.738919 421.4 0.729214 419.587 0.729214C404.111 0.729214 390.46 8.54155 382.362 20.4377C380.587 15.5045 377.291 11.2472 372.651 8.49685C362.047 2.21019 348.197 6.03392 340.617 16.9411C339.095 18.1951 335.203 21.5062 331.836 26.2181C326.179 34.1345 318.94 45.8358 315.082 56.5876C314.755 57.4982 314.246 58.8289 313.635 60.4248L313.635 60.4255L313.635 60.4255L313.635 60.4256C311.911 64.9279 309.38 71.5394 307.867 76.7756C305.542 84.8193 303.093 96.9578 306.897 109.552C310.888 122.769 324.468 129.208 337.227 123.933C346.804 119.973 353.197 110.54 354.103 100.492C356.345 106.444 359.696 111.756 363.894 116.198C363.948 116.287 364.002 116.376 364.056 116.465C364.531 117.244 365.336 118.549 366.305 119.966L366.321 119.989C366.973 120.943 369.191 124.183 372.536 127.52C381.808 136.767 394.9 147.781 409.516 155.378C413.885 157.648 421.196 161.171 429.294 163.98C433.335 165.382 438.584 166.964 444.407 167.957C449.456 168.817 459.091 170.007 470.244 167.339C471.767 166.974 473.261 166.543 474.723 166.048C482.101 167.595 489.685 167.431 496.894 165.668C503.423 169.357 510.965 171.463 519 171.463C543.853 171.463 564 151.316 564 126.463C564 106.881 556.703 87.2454 550.311 73.7974C543.94 60.3951 534.162 44.1656 522.267 33.4106C496.544 10.1542 468.55 3.20195 440.668 1.34334ZM361.784 112.69C361.783 112.686 361.824 112.748 361.911 112.886C361.828 112.763 361.785 112.693 361.784 112.69Z" fill="black" fill-opacity="0.85"/>
<path d="M372.242 319.466C372.242 320.781 372.242 325.285 372.242 332.781C372.242 340.277 369.414 349.384 368 353M461.333 317C462.394 329.329 463.117 330.762 463.985 334.26C465.576 340.671 466.636 342.151 473 351.027" stroke="black" stroke-width="10" stroke-linecap="round"/>
<path d="M74.1277 287.644C74.1277 274.708 74.1277 261.773 74.1277 248.837C74.1277 243.084 74.1277 237.332 74.1277 231.579C74.1277 230.437 74.2611 229.257 73.905 228.145C73.2338 226.049 73.6378 223.366 73.7813 221.234C73.9407 218.866 73.5236 215.78 74.3503 213.485C74.7802 212.292 74.2879 211.638 73.6823 210.587C72.2826 208.159 71.8634 205.234 71.2825 202.603C71.0443 201.523 70.4385 199.926 72.3464 200.413C75.2731 201.16 74.9179 207.577 75.0183 209.471C75.5899 220.257 76.4262 231.207 79.0263 241.796C81.5771 252.186 84.8514 262.423 87.0421 272.877C87.6851 275.945 88.1497 278.92 88.3781 282.042C88.4888 283.554 88.6931 285.06 88.7987 286.571C88.8376 287.128 89.2157 288.688 88.8234 288.245C85.2267 284.189 82.789 279.346 80.6591 274.615C79.8746 272.873 79.5 263.823 79.5 263.823" stroke="#FFECE0" stroke-width="10" stroke-linecap="round"/>
<path d="M100.629 284.041C101.085 284.44 100.997 279.672 101.098 278.965C101.556 275.763 103.027 272.431 104.851 269.796C106.22 267.819 107.337 265.621 108.477 263.505C109.281 262.011 108.69 259.146 108.69 257.469C108.69 247.67 111.761 238.119 111.761 228.339C111.761 224.049 111.74 220.228 112.827 216.098C113.611 213.118 115.513 207.584 118.116 213.027C119.18 215.252 118.83 218.31 117.433 220.321C115.15 223.608 115.216 226.797 115.216 230.663C115.216 236.134 115.599 241.669 115.599 247.191C115.599 253.204 115.599 259.218 115.599 265.232C115.599 269.851 115.649 275.056 116.559 279.605C117.214 282.878 118.578 290.592 115.898 293.168C114.035 294.959 112.603 287.292 112.315 285.896C111.769 283.241 111.761 280.718 111.761 278.027C111.761 276.016 111.493 270.969 109.842 275.511C108.339 279.644 107.648 284.762 104.83 288.285C103.069 290.486 98.7932 298.764 95.4256 293.253C93.991 290.906 93.9257 288.863 91.8856 287.026C89.727 285.084 92.9911 280.155 94.2314 278.56C95.5768 276.83 95.6389 278.663 95.6389 280.202" stroke="#FFECE0" stroke-width="10" stroke-linecap="round"/>
<path d="M125.196 309.375C128.011 309.375 129.688 306.554 132.276 305.835C133.874 305.392 135.389 304.193 136.882 303.447C138.66 302.558 140.829 301.366 142.256 299.992C144.288 298.037 145.672 295.665 148.227 294.32C150.203 293.28 152.644 291.288 153.815 289.372C154.924 287.556 156.879 284.757 158.805 283.657C159.605 283.2 159.81 282.34 160.383 281.652C161.348 280.494 162.52 279.67 163.582 278.667C165.738 276.63 168.905 275.212 171.835 275.212C173.504 275.212 174.087 276.234 173.349 277.92C172.534 279.784 170.634 280.856 169.574 282.505C168.682 283.893 167.835 285.395 166.802 286.728C164.12 290.188 161.59 293.433 159.551 297.284C158.564 299.149 158.436 301.288 157.44 303.17C156.352 305.225 154.586 306.973 153.601 309.077C150.646 315.39 147.784 321.768 144.965 328.057C142.788 332.913 140.527 338.174 139.377 343.347C138.976 345.153 134.982 344.307 133.641 344.307" stroke="#FFECE0" stroke-width="10" stroke-linecap="round"/>
<path d="M37.2925 226.846C37.2925 229.536 37.0958 231.141 38.6147 233.35C40.2477 235.726 41.518 238.075 42.9651 240.58C44.5832 243.38 45.2244 246.872 46.3345 249.899C47.6468 253.478 49.1134 257.003 50.3437 260.626C51.4596 263.911 52.6562 267.41 54.3955 270.414C55.168 271.748 56.9322 272.556 58.0208 273.677C59.4487 275.147 60.3864 276.899 61.3049 278.71C63.0264 282.103 65.8293 283.751 69.5365 284.425C70.0783 284.523 74.5964 286.117 72.6074 287.112" stroke="#FFECE0" stroke-width="10" stroke-linecap="round"/>
<path d="M9.27094 257.171C9.27094 264.597 13.5173 270.99 17.9291 276.662C19.1504 278.233 19.641 280.208 21.0852 281.652C22.3794 282.947 24.5799 284.823 26.246 285.576C27.6055 286.191 28.8009 287.304 29.9992 288.178C32.8168 290.234 35.6629 291.997 38.3588 294.234C40.6498 296.136 46.5051 299.386 46.5051 302.85" stroke="#FFECE0" stroke-width="10" stroke-linecap="round"/>
<path d="M8.88708 260.242C9.63487 260.335 11.1823 262.196 11.7447 262.758C13.003 264.016 13.9778 265.469 15.4127 266.597C17.7938 268.468 19.8051 272.132 20.019 275.127C20.2809 278.794 23.1799 282.932 25.7768 285.384C29.999 289.372 31.5241 295.355 35.7571 299.395C40.3131 303.744 50.869 301.587 53.0307 295.557C53.879 293.19 54.5131 290.693 55.1206 288.263C55.6083 286.312 56.8693 284.928 56.8693 282.911C56.8693 281.31 56.7625 280.625 56.1016 279.264C55.243 277.496 56.3548 275.231 53.7984 275.596" stroke="#FFECE0" stroke-width="10" stroke-linecap="round"/>
<path d="M36.1409 299.779C36.1409 303.529 36.5616 306.626 37.2712 310.292C37.859 313.329 40.4168 314.726 41.5149 317.628C42.3336 319.792 42.7452 322.245 43.9034 324.261C44.2455 324.856 45.352 326.947 46.1212 327.033C47.8641 327.227 49.7488 327.033 51.4952 327.033" stroke="#FFECE0" stroke-width="10" stroke-linecap="round"/>
<path d="M44.202 327.417C44.202 331.493 46.4717 334.081 48.4244 337.568C50.7471 341.715 52.2879 345.879 54.95 349.872C57.3219 353.43 60.3161 356.256 62.4352 360.023C63.3194 361.595 64.5998 362.931 65.698 364.352C67.6022 366.817 68.4152 369.916 70.1123 372.499C71.1307 374.048 72.2463 375.532 73.9722 376.337C75.9595 377.265 78.4009 376.767 80.4978 377.233C83.8328 377.974 87.914 377.318 91.3311 377.318C96.7985 377.318 102.449 377.56 106.984 373.949C109.012 372.334 111.761 370.936 111.761 368.106" stroke="#FFECE0" stroke-width="10" stroke-linecap="round"/>
<path d="M97.7403 378.238C97.7403 384.976 97.3316 391.764 99.0237 398.344C101.647 408.545 104.165 418.704 105.25 429.192C106.174 438.118 108.719 446.799 110.098 455.667C112.315 469.918 111.789 484.265 112.95 498.587C113.847 509.65 115.707 521.165 115.707 532.239C115.707 536.818 118.8 542.133 119.985 546.594C121.724 553.141 124.263 573.236 124.263 566.462" stroke="#FFECE0" stroke-width="50" stroke-linecap="round"/>
<path d="M132 599C129.266 593.673 129.87 592.232 127.689 586.516C125.523 580.84 122.033 571.902 122.033 565.551C122.033 557.443 104 414.148 104 406" stroke="#FFECE0" stroke-width="60" stroke-linecap="round"/>
<path d="M95.4128 327.108C95.464 325.421 95.5818 323.717 97.4003 323.381C98.0943 323.252 98.6802 323.132 99.3879 323.132C100.034 323.132 100.692 323.671 101.246 324.002C102.088 324.505 103.265 324.767 103.948 325.493C104.884 326.488 105 329.598 105 330.974C105 333.833 105.04 336.644 103.831 339.286C102.751 341.645 102.461 344.173 100.895 346.327C99.0784 348.825 94.3207 349.837 91.5286 349.074C87.9185 348.088 85.2558 344.467 84.8904 340.583C84.8113 339.743 84.0419 338.632 83.4874 338.043C82.6228 337.124 82.0275 336.015 81.3699 334.923C79.8282 332.363 77.8691 329.825 76.8232 326.984C76.1658 325.199 75.5394 323.34 73.9003 322.331C72.7377 321.616 71.7899 319.944 70.8605 318.907C70.2003 318.17 68.5432 316.902 69.1198 315.677C70.4993 312.744 74.3077 311.968 77.0181 311.7C79.8507 311.42 82.7661 310.82 85.5919 310.706C87.8946 310.614 90.5435 309.975 92.8276 310.582C94.2448 310.959 94.7765 312.087 95.4128 313.44" stroke="#FFECE0" stroke-width="60" stroke-linecap="round"/>
<path d="M125.918 339.886C125.918 334.488 131.183 331.265 131.761 326.065C132.07 323.281 133.549 321.066 135.184 318.907C136.53 317.13 137.378 315.017 138.568 313.129C139.629 311.443 140.059 309.864 141.613 308.483C142.654 307.557 143.887 307.028 144.893 306.166C145.753 305.428 146.87 305.113 147.704 304.279C148.298 303.684 149.043 302.427 149.812 302.171" stroke="#FFECE0" stroke-width="30" stroke-linecap="round"/>
<path d="M126 374L169 568" stroke="black" stroke-width="10" stroke-linecap="round"/>
<path d="M76.5872 384.323C80.2538 442.082 91.7715 560.903 94.0872 578.081C99.0872 615.172 101.152 617.472 104.587 628.458C109.087 642.852 114.482 649.495 116.587 652.263C124.587 662.781 140.284 679.924 161 670.823C184.5 660.5 231 624 255.5 578.081" stroke="black" stroke-width="10" stroke-linecap="round"/>
<path d="M75.0872 381.823C63.5872 376.323 46.5871 357.823 42.5872 342.323C39.0534 328.629 39.1668 323.424 32.5885 312.323C24.5883 298.823 17.0883 286.323 11.0882 274.823C7.49026 267.927 3.47009 259.116 5.58711 253.823C8.58673 246.323 16.6731 252.409 18.0871 253.823C22.5857 258.323 25.5871 267.823 33.5871 279.823C41.5871 291.823 45.5 291.91 48.0872 289.323C53.0872 284.323 43 266 36 249.5C29.0988 233.233 28.5871 217.323 37.0871 219.823C45.512 222.301 49.0828 233.711 53.5 245C57.413 255 58.9115 258.677 64 270C69.0642 281.269 70.7552 274.657 70.5885 268.823C70.9218 244.823 65.0872 218.823 65.0872 207.323C65.0872 187.823 79.361 186.692 83.0872 205.323C84.5872 212.823 86.4508 224.323 87.0872 228.323C90.5872 250.323 90.6885 265.223 91.0885 268.823C91.5885 273.323 94.0885 276.823 97.5885 275.823C100.388 275.023 101.922 270.99 102.088 268.823C103.665 248.323 106 225.823 106.588 218.823C107.301 210.338 110.088 206.323 113.088 205.323C117.588 203.823 124.088 206.323 125.588 212.823C127.248 220.017 123.587 290.823 124.087 296.823C124.587 302.823 130.588 303.323 138.088 295.823C145.587 287.323 147.587 286.323 160.087 273.823C165.843 268.068 173.246 266.279 176.587 267.323C184.587 269.823 182.055 278.403 172.587 293.323C163.119 308.243 150.588 323.823 147.088 334.323C146.088 335.323 134.541 361.744 125.588 370.323" stroke="black" stroke-width="10" stroke-linecap="round"/>
<path d="M546 510C544.117 515.473 541.764 525.894 541.764 529.157C534.703 574.807 539.743 627.854 539.743 677.255C539.743 718.503 539.743 759.752 539.743 801" stroke="black" stroke-opacity="0.4" stroke-width="60" stroke-linecap="round"/>
<path d="M611 420C629 432 645.627 473.576 655.916 494.584C663.248 509.555 672 540.5 674 556.5" stroke="black" stroke-opacity="0.4" stroke-width="40" stroke-linecap="round"/>
<path d="M252.38 562.362C253.474 556.383 254.539 551.329 257.122 542.371C258.285 538.34 259.425 534.142 260 531" stroke="black" stroke-opacity="0.4" stroke-width="40" stroke-linecap="round"/>
<path d="M231.055 593.98C221.591 607.43 208.621 620.422 195.303 632.797C186.659 640.83 166.811 654.658 157.5 659.5" stroke="#5D24FF" stroke-width="6" stroke-linecap="round"/>
<path d="M621.709 403C643.227 425.119 662.281 473.361 689.827 574.476" stroke="#5D24FF" stroke-width="6" stroke-linecap="round"/>
<path d="M483 44.209C498.212 53.5073 512.537 74.598 534.182 119.164" stroke="#5D24FF" stroke-width="6" stroke-linecap="round"/>
<path d="M573 607C572 634 570.872 636.118 572.193 698.863C573.515 761.608 572.744 801.765 572.193 814" stroke="#5D24FF" stroke-width="6" stroke-linecap="round"/>
</svg>
